<?xml version="1.0" ?><!DOCTYPE svg  PUBLIC '-//W3C//DTD SVG 1.1//EN'  'http://www.w3.org/Graphics/SVG/1.1/DTD/svg11.dtd'><svg enable-background="new 0 0 512 512" id="Layer_1" version="1.1" viewBox="0 0 512 512" xml:space="preserve" xmlns="http://www.w3.org/2000/svg" xmlns:xlink="http://www.w3.org/1999/xlink"><g><path d="M257.1,507.9c-138,0-249.2-112.4-248.6-252.3C9.1,116.8,121,4.6,260.1,6.2c135.8,1.6,246.6,113,245.4,253   C504.4,397.1,393.9,507.5,257.1,507.9z M257.1,25.9C133,25.4,29.4,126.5,28.1,254.4C26.7,384.9,131,487.1,254.9,488.2   c125.6,1.1,230.3-100.6,231-229.1C486.5,129.5,384.4,25.9,257.1,25.9z" fill="#52C85E"/><path d="M101.5,418.5c4.1-12.4,7.9-23.7,11.7-35c4.9-14.7,9.8-29.3,14.9-44c0.8-2.3,0.6-3.9-0.6-6   c-13.8-24.1-20.6-50.1-20.4-77.8c0.4-76.9,59.5-142.5,135.6-150.9c81.1-8.9,153,44.4,168.5,125C426.9,312,370.3,393.8,287.9,408   c-34.1,5.9-66.6,1.2-97.5-14.4c-3.2-1.6-5.7-1.7-9-0.6c-24.5,8-49.1,15.8-73.6,23.6C106.2,417.1,104.4,417.6,101.5,418.5z    M141.4,379.3c15.6-5,30.1-9.5,44.5-14.3c2.9-1,5.1-0.8,7.9,0.9c28.4,17.1,58.9,22.5,91.6,16.4c76.7-14.2,123.1-98.7,93.9-171.4   c-28.1-70.1-107.2-101.4-174.9-67.9c-45.6,22.6-69.3,60.8-71.3,111.9c-1.1,27.1,6.9,51.9,22.1,74.3c1.5,2.2,1.7,3.9,0.8,6.4   c-3.2,9.1-6.2,18.3-9.3,27.4C145.1,368,143.4,373.2,141.4,379.3z" fill="#51C85D"/><path d="M210.6,182.1c2.3,0.2,4.6,0.6,7,0.6c3.6-0.1,5.7,1.8,6.9,4.8c4.2,10.9,8.3,21.7,12.3,32.7   c1.3,3.5-0.2,6.6-2.2,9.3c-2.7,3.4-5.5,6.7-8.5,9.7c-2.6,2.6-3.2,5.1-1.4,8.4c12.1,22.1,29.4,38.4,52.6,48.5   c3.1,1.4,5.4,0.5,7.5-1.9c3.9-4.5,8.1-8.8,11.8-13.6c2.7-3.5,5.6-4.5,9.5-2.5c10.3,5.4,20.6,10.8,30.9,16.2   c2.8,1.4,3.4,3.8,3.2,6.7c-1.1,17.4-10.4,26.9-29.8,31.8c-7.1,1.8-14,0.8-21.1-1.2c-38.5-11.1-67.4-34.4-88.5-68   c-7-11.2-14-22.3-16.1-35.6c-2.7-16.8,2.4-30.9,15-42.2C202.7,183.1,206.4,181.7,210.6,182.1z" fill="#51C85D"/></g></svg>